<svg xmlns="http://www.w3.org/2000/svg" version="1.1" xmlns:xlink="http://www.w3.org/1999/xlink" xmlns:svgjs="http://svgjs.dev/svgjs" width="1440" height="560" preserveAspectRatio="none" viewBox="0 0 1440 560"><g mask="url(&quot;#SvgjsMask1885&quot;)" fill="none"><rect width="1440" height="560" x="0" y="0" fill="url(&quot;#SvgjsLinearGradient1886&quot;)"></rect><path d="M1238.6268064116457 273.0589504846406L1381.9699034375515 389.3622669094363 1409.9899908360674 230.45245466213282z" fill="rgba(40, 21, 142, 0.79)" class="triangle-float3"></path><path d="M938.4429329904743 65.55173863725588L886.3167240456477-11.728544180883702 809.0364412275081 40.397664763942906 861.1626501723348 117.67794758208248z" fill="rgba(40, 21, 142, 0.79)" class="triangle-float2"></path><path d="M1203.6969815885607 139.44674132464752L1189.5893359306026 24.549187803125818 1088.799428067039 153.55438698260554z" fill="rgba(40, 21, 142, 0.79)" class="triangle-float1"></path><path d="M150.81777293086563 516.3856592508818L258.3946427650433 541.2217365964485 175.65385027643237 408.8087894167041z" fill="rgba(40, 21, 142, 0.79)" class="triangle-float2"></path><path d="M156.662,726.313C212.133,727.834,267.112,705.589,296.374,658.439C327.205,608.761,330.401,544.972,300.319,494.837C271.005,445.982,213.589,423.244,156.662,425.593C103.779,427.775,58.147,459.787,32.171,505.902C6.704,551.114,4.103,605.941,29.623,651.123C55.561,697.045,103.941,724.867,156.662,726.313" fill="rgba(40, 21, 142, 0.79)" class="triangle-float1"></path><path d="M730.236,767.861C779.716,767.407,822.568,736.047,846.645,692.818C870.049,650.797,871.037,599.858,847.014,558.188C822.965,516.472,778.26,494.399,730.236,490.894C673.946,486.785,608.294,490.037,579.658,538.673C550.792,587.699,578.829,647.439,610.069,694.988C637.639,736.951,680.029,768.322,730.236,767.861" fill="rgba(40, 21, 142, 0.79)" class="triangle-float2"></path></g><defs><mask id="SvgjsMask1885"><rect width="1440" height="560" fill="#ffffff"></rect></mask><linearGradient x1="15.28%" y1="-39.29%" x2="84.72%" y2="139.29%" gradientUnits="userSpaceOnUse" id="SvgjsLinearGradient1886"><stop stop-color="rgba(0, 36, 73, 1)" offset="0"></stop><stop stop-color="rgba(140, 12, 181, 1)" offset="0.89"></stop></linearGradient><style>
                @keyframes float1 {
                    0%{transform: translate(0, 0)}
                    50%{transform: translate(-10px, 0)}
                    100%{transform: translate(0, 0)}
                }

                .triangle-float1 {
                    animation: float1 5s infinite;
                }

                @keyframes float2 {
                    0%{transform: translate(0, 0)}
                    50%{transform: translate(-5px, -5px)}
                    100%{transform: translate(0, 0)}
                }

                .triangle-float2 {
                    animation: float2 4s infinite;
                }

                @keyframes float3 {
                    0%{transform: translate(0, 0)}
                    50%{transform: translate(0, -10px)}
                    100%{transform: translate(0, 0)}
                }

                .triangle-float3 {
                    animation: float3 6s infinite;
                }
            </style></defs></svg>