<svg xmlns="http://www.w3.org/2000/svg" version="1.1" xmlns:xlink="http://www.w3.org/1999/xlink" xmlns:svgjs="http://svgjs.dev/svgjs" width="1440" height="768" preserveAspectRatio="none" viewBox="0 0 1440 768"><g mask="url(&quot;#SvgjsMask1048&quot;)" fill="none"><rect width="1440" height="768" x="0" y="0" fill="rgba(0, 0, 0, 1)"></rect><path d="M928 133L927 -111" stroke-width="8" stroke="url(&quot;#SvgjsLinearGradient1049&quot;)" stroke-linecap="round" class="Up"></path><path d="M1170 498L1169 1066" stroke-width="6" stroke="url(&quot;#SvgjsLinearGradient1049&quot;)" stroke-linecap="round" class="Up"></path><path d="M786 656L785 991" stroke-width="8" stroke="url(&quot;#SvgjsLinearGradient1050&quot;)" stroke-linecap="round" class="Down"></path><path d="M290 682L289 900" stroke-width="6" stroke="url(&quot;#SvgjsLinearGradient1049&quot;)" stroke-linecap="round" class="Up"></path><path d="M1334 376L1333 130" stroke-width="8" stroke="url(&quot;#SvgjsLinearGradient1049&quot;)" stroke-linecap="round" class="Up"></path><path d="M481 121L480 335" stroke-width="10" stroke="url(&quot;#SvgjsLinearGradient1049&quot;)" stroke-linecap="round" class="Up"></path><path d="M513 764L512 1218" stroke-width="6" stroke="url(&quot;#SvgjsLinearGradient1050&quot;)" stroke-linecap="round" class="Down"></path><path d="M1201 131L1200 676" stroke-width="8" stroke="url(&quot;#SvgjsLinearGradient1050&quot;)" stroke-linecap="round" class="Down"></path><path d="M642 348L641 782" stroke-width="10" stroke="url(&quot;#SvgjsLinearGradient1049&quot;)" stroke-linecap="round" class="Up"></path><path d="M1142 495L1141 748" stroke-width="10" stroke="url(&quot;#SvgjsLinearGradient1049&quot;)" stroke-linecap="round" class="Up"></path><path d="M463 199L462 -321" stroke-width="6" stroke="url(&quot;#SvgjsLinearGradient1049&quot;)" stroke-linecap="round" class="Up"></path><path d="M871 495L870 -8" stroke-width="6" stroke="url(&quot;#SvgjsLinearGradient1050&quot;)" stroke-linecap="round" class="Down"></path><path d="M532 67L531 -298" stroke-width="8" stroke="url(&quot;#SvgjsLinearGradient1049&quot;)" stroke-linecap="round" class="Up"></path><path d="M996 761L995 982" stroke-width="8" stroke="url(&quot;#SvgjsLinearGradient1050&quot;)" stroke-linecap="round" class="Down"></path><path d="M979 443L978 936" stroke-width="10" stroke="url(&quot;#SvgjsLinearGradient1049&quot;)" stroke-linecap="round" class="Up"></path><path d="M895 447L894 884" stroke-width="6" stroke="url(&quot;#SvgjsLinearGradient1050&quot;)" stroke-linecap="round" class="Down"></path><path d="M149 468L148 151" stroke-width="8" stroke="url(&quot;#SvgjsLinearGradient1050&quot;)" stroke-linecap="round" class="Down"></path><path d="M33 688L32 957" stroke-width="10" stroke="url(&quot;#SvgjsLinearGradient1050&quot;)" stroke-linecap="round" class="Down"></path><path d="M493 25L492 252" stroke-width="6" stroke="url(&quot;#SvgjsLinearGradient1049&quot;)" stroke-linecap="round" class="Up"></path><path d="M272 315L271 -17" stroke-width="6" stroke="url(&quot;#SvgjsLinearGradient1049&quot;)" stroke-linecap="round" class="Up"></path><path d="M1406 299L1405 872" stroke-width="8" stroke="url(&quot;#SvgjsLinearGradient1049&quot;)" stroke-linecap="round" class="Up"></path><path d="M732 655L731 422" stroke-width="6" stroke="url(&quot;#SvgjsLinearGradient1050&quot;)" stroke-linecap="round" class="Down"></path><path d="M13 419L12 641" stroke-width="10" stroke="url(&quot;#SvgjsLinearGradient1050&quot;)" stroke-linecap="round" class="Down"></path><path d="M953 106L952 -370" stroke-width="10" stroke="url(&quot;#SvgjsLinearGradient1049&quot;)" stroke-linecap="round" class="Up"></path><path d="M1107 404L1106 641" stroke-width="10" stroke="url(&quot;#SvgjsLinearGradient1050&quot;)" stroke-linecap="round" class="Down"></path><path d="M847 702L846 256" stroke-width="8" stroke="url(&quot;#SvgjsLinearGradient1050&quot;)" stroke-linecap="round" class="Down"></path><path d="M607 658L606 413" stroke-width="6" stroke="url(&quot;#SvgjsLinearGradient1050&quot;)" stroke-linecap="round" class="Down"></path><path d="M132 618L131 1123" stroke-width="6" stroke="url(&quot;#SvgjsLinearGradient1050&quot;)" stroke-linecap="round" class="Down"></path><path d="M264 469L263 143" stroke-width="8" stroke="url(&quot;#SvgjsLinearGradient1050&quot;)" stroke-linecap="round" class="Down"></path><path d="M344 658L343 1062" stroke-width="8" stroke="url(&quot;#SvgjsLinearGradient1050&quot;)" stroke-linecap="round" class="Down"></path><path d="M29 148L28 -179" stroke-width="6" stroke="url(&quot;#SvgjsLinearGradient1050&quot;)" stroke-linecap="round" class="Down"></path><path d="M1056 338L1055 -80" stroke-width="8" stroke="url(&quot;#SvgjsLinearGradient1050&quot;)" stroke-linecap="round" class="Down"></path><path d="M1059 74L1058 474" stroke-width="8" stroke="url(&quot;#SvgjsLinearGradient1049&quot;)" stroke-linecap="round" class="Up"></path><path d="M1073 514L1072 -29" stroke-width="10" stroke="url(&quot;#SvgjsLinearGradient1050&quot;)" stroke-linecap="round" class="Down"></path><path d="M552 761L551 321" stroke-width="10" stroke="url(&quot;#SvgjsLinearGradient1049&quot;)" stroke-linecap="round" class="Up"></path><path d="M162 89L161 305" stroke-width="8" stroke="url(&quot;#SvgjsLinearGradient1049&quot;)" stroke-linecap="round" class="Up"></path></g><defs><mask id="SvgjsMask1048"><rect width="1440" height="768" fill="#ffffff"></rect></mask><linearGradient x1="0%" y1="100%" x2="0%" y2="0%" id="SvgjsLinearGradient1049"><stop stop-color="rgba(35, 90, 145, 0)" offset="0"></stop><stop stop-color="rgba(35, 90, 145, 1)" offset="1"></stop></linearGradient><linearGradient x1="0%" y1="0%" x2="0%" y2="100%" id="SvgjsLinearGradient1050"><stop stop-color="rgba(35, 90, 145, 0)" offset="0"></stop><stop stop-color="rgba(35, 90, 145, 1)" offset="1"></stop></linearGradient></defs></svg>